<?xml version="1.0" encoding="UTF-8" standalone="no"?>
<svg
   xmlns:dc="http://purl.org/dc/elements/1.1/"
   xmlns:cc="http://creativecommons.org/ns#"
   xmlns:rdf="http://www.w3.org/1999/02/22-rdf-syntax-ns#"
   xmlns:svg="http://www.w3.org/2000/svg"
   xmlns="http://www.w3.org/2000/svg"
   shape-rendering="crispEdges"
   version="1.0"
   width="200"
   height="200"
   id="svg2424">
  <metadata
     id="metadata34">
    <rdf:RDF>
      <cc:Work
         rdf:about="">
        <dc:format>image/svg+xml</dc:format>
        <dc:type
           rdf:resource="http://purl.org/dc/dcmitype/StillImage" />
        <dc:title></dc:title>
      </cc:Work>
    </rdf:RDF>
  </metadata>
  <defs
     id="defs2426" />
  <path
     d="M 99.984375,16.90625 C 92.587505,35.041408 88.126071,46.903932 79.890625,64.5 84.939985,69.85232 91.137836,76.085364 101.20313,83.125 90.381952,78.672154 83.000588,74.201602 77.484375,69.5625 c -10.5398,21.992913 -27.052636,53.32084 -60.5625,113.53125 26.337628,-15.20517 46.754089,-24.57932 65.78125,-28.15625 -0.817034,-3.51405 -1.28155,-7.31518 -1.25,-11.28125 l 0.03125,-0.84375 c 0.417917,-16.87382 9.195665,-29.84979 19.593755,-28.96875 10.39808,0.88104 18.48041,15.28242 18.0625,32.15625 -0.0786,3.17512 -0.43674,6.22955 -1.0625,9.0625 18.82057,3.68164 39.01872,13.03179 64.99999,28.03125 -5.123,-9.4318 -9.69572,-17.93388 -14.0625,-26.03125 -6.87839,-5.33121 -14.05289,-12.2698 -28.6875,-19.78125 10.05899,2.61375 17.2611,5.62932 22.875,9 C 118.80485,63.619411 115.20954,52.635359 99.984375,16.90625 Z"
     id="path2518"
     style="fill:#000000;fill-opacity:1;fill-rule:evenodd;stroke:none" />
</svg>
